<svg version="1.1" xmlns="http://www.w3.org/2000/svg" viewBox="0 0 707.2022376060924 234.76486907378273" width="707.2022376060924" height="234.76486907378273">
  <g stroke-linecap="round" transform="translate(11.180103872259565 136.91054336506016) rotate(0 46.592232743938325 12.030744247979442)"><path d="M6.02 0 M6.02 0 C34.46 0, 62.9 0, 87.17 0 M87.17 0 C91.18 0, 93.18 2.01, 93.18 6.02 M93.18 6.02 C93.18 9.49, 93.18 12.96, 93.18 18.05 M93.18 18.05 C93.18 22.06, 91.18 24.06, 87.17 24.06 M87.17 24.06 C58.8 24.06, 30.43 24.06, 6.02 24.06 M6.02 24.06 C2.01 24.06, 0 22.06, 0 18.05 M0 18.05 C0 14.28, 0 10.52, 0 6.02 M0 6.02 C0 2.01, 2.01 0, 6.02 0" stroke="#495057" stroke-width="1.5" fill="none" stroke-dasharray="1.5 7"></path></g><g stroke-linecap="round" transform="translate(109.82223291983439 137.35417891043124) rotate(0 120.57618856511726 12.030744247979442)"><path d="M6.02 0 M6.02 0 C80.13 0, 154.25 0, 235.14 0 M6.02 0 C70.76 0, 135.51 0, 235.14 0 M235.14 0 C239.15 0, 241.15 2.01, 241.15 6.02 M235.14 0 C239.15 0, 241.15 2.01, 241.15 6.02 M241.15 6.02 C241.15 10.06, 241.15 14.1, 241.15 18.05 M241.15 6.02 C241.15 9.63, 241.15 13.25, 241.15 18.05 M241.15 18.05 C241.15 22.06, 239.15 24.06, 235.14 24.06 M241.15 18.05 C241.15 22.06, 239.15 24.06, 235.14 24.06 M235.14 24.06 C173.49 24.06, 111.85 24.06, 6.02 24.06 M235.14 24.06 C165.45 24.06, 95.77 24.06, 6.02 24.06 M6.02 24.06 C2.01 24.06, 0 22.06, 0 18.05 M6.02 24.06 C2.01 24.06, 0 22.06, 0 18.05 M0 18.05 C0 14.06, 0 10.07, 0 6.02 M0 18.05 C0 15.58, 0 13.12, 0 6.02 M0 6.02 C0 2.01, 2.01 0, 6.02 0 M0 6.02 C0 2.01, 2.01 0, 6.02 0" stroke="#000000" stroke-width="1" fill="none"></path></g><g stroke-linecap="round" transform="translate(357.4077314282831 105.13236113774559) rotate(0 46.592232743938325 12.030744247979442)"><path d="M6.02 0 M6.02 0 C37.7 0, 69.38 0, 87.17 0 M87.17 0 C91.18 0, 93.18 2.01, 93.18 6.02 M93.18 6.02 C93.18 9.15, 93.18 12.29, 93.18 18.05 M93.18 18.05 C93.18 22.06, 91.18 24.06, 87.17 24.06 M87.17 24.06 C58.5 24.06, 29.83 24.06, 6.02 24.06 M6.02 24.06 C2.01 24.06, 0 22.06, 0 18.05 M0 18.05 C0 13.24, 0 8.44, 0 6.02 M0 6.02 C0 2.01, 2.01 0, 6.02 0" stroke="#495057" stroke-width="1.5" fill="none" stroke-dasharray="1.5 7"></path></g><g stroke-linecap="round" transform="translate(456.0498604758577 105.57599668311667) rotate(0 120.57618856511732 12.030744247979442)"><path d="M6.02 0 M6.02 0 C71.29 0, 136.57 0, 235.14 0 M6.02 0 C61.95 0, 117.88 0, 235.14 0 M235.14 0 C239.15 0, 241.15 2.01, 241.15 6.02 M235.14 0 C239.15 0, 241.15 2.01, 241.15 6.02 M241.15 6.02 C241.15 8.6, 241.15 11.19, 241.15 18.05 M241.15 6.02 C241.15 9.24, 241.15 12.46, 241.15 18.05 M241.15 18.05 C241.15 22.06, 239.15 24.06, 235.14 24.06 M241.15 18.05 C241.15 22.06, 239.15 24.06, 235.14 24.06 M235.14 24.06 C144.23 24.06, 53.32 24.06, 6.02 24.06 M235.14 24.06 C175.89 24.06, 116.65 24.06, 6.02 24.06 M6.02 24.06 C2.01 24.06, 0 22.06, 0 18.05 M6.02 24.06 C2.01 24.06, 0 22.06, 0 18.05 M0 18.05 C0 15.45, 0 12.85, 0 6.02 M0 18.05 C0 15.41, 0 12.77, 0 6.02 M0 6.02 C0 2.01, 2.01 0, 6.02 0 M0 6.02 C0 2.01, 2.01 0, 6.02 0" stroke="#000000" stroke-width="1" fill="none"></path></g><g stroke-linecap="round" transform="translate(11.077084033078563 168.1269010690001) rotate(0 46.592232743938325 12.030744247979442)"><path d="M6.02 0 M6.02 0 C35.01 0, 64 0, 87.17 0 M87.17 0 C91.18 0, 93.18 2.01, 93.18 6.02 M93.18 6.02 C93.18 9.14, 93.18 12.27, 93.18 18.05 M93.18 18.05 C93.18 22.06, 91.18 24.06, 87.17 24.06 M87.17 24.06 C57.35 24.06, 27.53 24.06, 6.02 24.06 M6.02 24.06 C2.01 24.06, 0 22.06, 0 18.05 M0 18.05 C0 14.82, 0 11.6, 0 6.02 M0 6.02 C0 2.01, 2.01 0, 6.02 0" stroke="#495057" stroke-width="1.5" fill="none" stroke-dasharray="1.5 7"></path></g><g stroke-linecap="round" transform="translate(109.71921308065362 168.57053661437118) rotate(0 120.57618856511726 12.030744247979442)"><path d="M6.02 0 M6.02 0 C65.09 0, 124.17 0, 235.14 0 M6.02 0 C84.18 0, 162.34 0, 235.14 0 M235.14 0 C239.15 0, 241.15 2.01, 241.15 6.02 M235.14 0 C239.15 0, 241.15 2.01, 241.15 6.02 M241.15 6.02 C241.15 9.98, 241.15 13.94, 241.15 18.05 M241.15 6.02 C241.15 10.32, 241.15 14.62, 241.15 18.05 M241.15 18.05 C241.15 22.06, 239.15 24.06, 235.14 24.06 M241.15 18.05 C241.15 22.06, 239.15 24.06, 235.14 24.06 M235.14 24.06 C152.01 24.06, 68.88 24.06, 6.02 24.06 M235.14 24.06 C177.47 24.06, 119.8 24.06, 6.02 24.06 M6.02 24.06 C2.01 24.06, 0 22.06, 0 18.05 M6.02 24.06 C2.01 24.06, 0 22.06, 0 18.05 M0 18.05 C0 14, 0 9.95, 0 6.02 M0 18.05 C0 14.46, 0 10.87, 0 6.02 M0 6.02 C0 2.01, 2.01 0, 6.02 0 M0 6.02 C0 2.01, 2.01 0, 6.02 0" stroke="#000000" stroke-width="1" fill="none"></path></g><g stroke-linecap="round" transform="translate(357.304711589102 136.34871884168552) rotate(0 46.592232743938325 12.030744247979442)"><path d="M6.02 0 M6.02 0 C24.72 0, 43.43 0, 87.17 0 M87.17 0 C91.18 0, 93.18 2.01, 93.18 6.02 M93.18 6.02 C93.18 8.85, 93.18 11.68, 93.18 18.05 M93.18 18.05 C93.18 22.06, 91.18 24.06, 87.17 24.06 M87.17 24.06 C70.19 24.06, 53.21 24.06, 6.02 24.06 M6.02 24.06 C2.01 24.06, 0 22.06, 0 18.05 M0 18.05 C0 14.5, 0 10.95, 0 6.02 M0 6.02 C0 2.01, 2.01 0, 6.02 0" stroke="#495057" stroke-width="1.5" fill="none" stroke-dasharray="1.5 7"></path></g><g stroke-linecap="round" transform="translate(455.9468406366766 136.7923543870566) rotate(0 120.57618856511732 12.030744247979442)"><path d="M6.02 0 M6.02 0 C93.22 0, 180.42 0, 235.14 0 M6.02 0 C96.9 0, 187.79 0, 235.14 0 M235.14 0 C239.15 0, 241.15 2.01, 241.15 6.02 M235.14 0 C239.15 0, 241.15 2.01, 241.15 6.02 M241.15 6.02 C241.15 10.53, 241.15 15.05, 241.15 18.05 M241.15 6.02 C241.15 10.01, 241.15 14.01, 241.15 18.05 M241.15 18.05 C241.15 22.06, 239.15 24.06, 235.14 24.06 M241.15 18.05 C241.15 22.06, 239.15 24.06, 235.14 24.06 M235.14 24.06 C180.35 24.06, 125.57 24.06, 6.02 24.06 M235.14 24.06 C184.59 24.06, 134.04 24.06, 6.02 24.06 M6.02 24.06 C2.01 24.06, 0 22.06, 0 18.05 M6.02 24.06 C2.01 24.06, 0 22.06, 0 18.05 M0 18.05 C0 15.22, 0 12.39, 0 6.02 M0 18.05 C0 13.46, 0 8.87, 0 6.02 M0 6.02 C0 2.01, 2.01 0, 6.02 0 M0 6.02 C0 2.01, 2.01 0, 6.02 0" stroke="#000000" stroke-width="1" fill="none"></path></g><g stroke-linecap="round" transform="translate(11.402839848916074 199.43554790737568) rotate(0 46.592232743938325 12.030744247979442)"><path d="M6.02 0 M6.02 0 C24.55 0, 43.09 0, 87.17 0 M87.17 0 C91.18 0, 93.18 2.01, 93.18 6.02 M93.18 6.02 C93.18 10.34, 93.18 14.67, 93.18 18.05 M93.18 18.05 C93.18 22.06, 91.18 24.06, 87.17 24.06 M87.17 24.06 C57.06 24.06, 26.95 24.06, 6.02 24.06 M6.02 24.06 C2.01 24.06, 0 22.06, 0 18.05 M0 18.05 C0 14.3, 0 10.56, 0 6.02 M0 6.02 C0 2.01, 2.01 0, 6.02 0" stroke="#495057" stroke-width="1.5" fill="none" stroke-dasharray="1.5 7"></path></g><g stroke-linecap="round" transform="translate(485.55180588595977 200.70338057782385) rotate(0 46.59223274393827 12.030744247979442)"><path d="M6.02 0 M6.02 0 C32 0, 57.99 0, 87.17 0 M87.17 0 C91.18 0, 93.18 2.01, 93.18 6.02 M93.18 6.02 C93.18 9.03, 93.18 12.04, 93.18 18.05 M93.18 18.05 C93.18 22.06, 91.18 24.06, 87.17 24.06 M87.17 24.06 C63.26 24.06, 39.34 24.06, 6.02 24.06 M6.02 24.06 C2.01 24.06, 0 22.06, 0 18.05 M0 18.05 C0 15.5, 0 12.96, 0 6.02 M0 6.02 C0 2.01, 2.01 0, 6.02 0" stroke="#495057" stroke-width="1.5" fill="none" stroke-dasharray="1.5 7"></path></g><g stroke-linecap="round" transform="translate(584.9869047388369 200.64245669544437) rotate(0 56.09153748263395 12.030744247979442)"><path d="M6.02 0 M6.02 0 C31.41 0, 56.8 0, 106.17 0 M6.02 0 C36.58 0, 67.15 0, 106.17 0 M106.17 0 C110.18 0, 112.18 2.01, 112.18 6.02 M106.17 0 C110.18 0, 112.18 2.01, 112.18 6.02 M112.18 6.02 C112.18 8.66, 112.18 11.3, 112.18 18.05 M112.18 6.02 C112.18 10.59, 112.18 15.17, 112.18 18.05 M112.18 18.05 C112.18 22.06, 110.18 24.06, 106.17 24.06 M112.18 18.05 C112.18 22.06, 110.18 24.06, 106.17 24.06 M106.17 24.06 C83.08 24.06, 59.99 24.06, 6.02 24.06 M106.17 24.06 C70.68 24.06, 35.18 24.06, 6.02 24.06 M6.02 24.06 C2.01 24.06, 0 22.06, 0 18.05 M6.02 24.06 C2.01 24.06, 0 22.06, 0 18.05 M0 18.05 C0 15.29, 0 12.53, 0 6.02 M0 18.05 C0 14.45, 0 10.86, 0 6.02 M0 6.02 C0 2.01, 2.01 0, 6.02 0 M0 6.02 C0 2.01, 2.01 0, 6.02 0" stroke="#000000" stroke-width="1" fill="none"></path></g><g stroke-linecap="round" transform="translate(110.30234887168945 199.62180421348586) rotate(0 184.7230314242708 12.030744247979442)"><path d="M6.02 0 M6.02 0 C124.68 0, 243.35 0, 363.43 0 M6.02 0 C117.43 0, 228.84 0, 363.43 0 M363.43 0 C367.44 0, 369.45 2.01, 369.45 6.02 M363.43 0 C367.44 0, 369.45 2.01, 369.45 6.02 M369.45 6.02 C369.45 8.75, 369.45 11.48, 369.45 18.05 M369.45 6.02 C369.45 8.52, 369.45 11.02, 369.45 18.05 M369.45 18.05 C369.45 22.06, 367.44 24.06, 363.43 24.06 M369.45 18.05 C369.45 22.06, 367.44 24.06, 363.43 24.06 M363.43 24.06 C242.89 24.06, 122.36 24.06, 6.02 24.06 M363.43 24.06 C271.06 24.06, 178.69 24.06, 6.02 24.06 M6.02 24.06 C2.01 24.06, 0 22.06, 0 18.05 M6.02 24.06 C2.01 24.06, 0 22.06, 0 18.05 M0 18.05 C0 13.96, 0 9.87, 0 6.02 M0 18.05 C0 14.44, 0 10.84, 0 6.02 M0 6.02 C0 2.01, 2.01 0, 6.02 0 M0 6.02 C0 2.01, 2.01 0, 6.02 0" stroke="#000000" stroke-width="1" fill="none"></path></g><g stroke-linecap="round" transform="translate(10.309711060582913 41.884250628656105) rotate(0 46.592232743938325 12.030744247979442)"><path d="M6.02 0 M6.02 0 C37.03 0, 68.05 0, 87.17 0 M87.17 0 C91.18 0, 93.18 2.01, 93.18 6.02 M93.18 6.02 C93.18 9.91, 93.18 13.8, 93.18 18.05 M93.18 18.05 C93.18 22.06, 91.18 24.06, 87.17 24.06 M87.17 24.06 C59.66 24.06, 32.15 24.06, 6.02 24.06 M6.02 24.06 C2.01 24.06, 0 22.06, 0 18.05 M0 18.05 C0 13.96, 0 9.87, 0 6.02 M0 6.02 C0 2.01, 2.01 0, 6.02 0" stroke="#495057" stroke-width="1.5" fill="none" stroke-dasharray="1.5 7"></path></g><g stroke-linecap="round" transform="translate(108.95184010815774 42.327886174027185) rotate(0 293.7575752640386 12.030744247979442)"><path d="M6.02 0 M6.02 0 C127.33 0, 248.64 0, 581.5 0 M6.02 0 C178.44 0, 350.86 0, 581.5 0 M581.5 0 C585.51 0, 587.52 2.01, 587.52 6.02 M581.5 0 C585.51 0, 587.52 2.01, 587.52 6.02 M587.52 6.02 C587.52 8.99, 587.52 11.96, 587.52 18.05 M587.52 6.02 C587.52 8.48, 587.52 10.95, 587.52 18.05 M587.52 18.05 C587.52 22.06, 585.51 24.06, 581.5 24.06 M587.52 18.05 C587.52 22.06, 585.51 24.06, 581.5 24.06 M581.5 24.06 C403.88 24.06, 226.26 24.06, 6.02 24.06 M581.5 24.06 C382.86 24.06, 184.22 24.06, 6.02 24.06 M6.02 24.06 C2.01 24.06, 0 22.06, 0 18.05 M6.02 24.06 C2.01 24.06, 0 22.06, 0 18.05 M0 18.05 C0 14.81, 0 11.57, 0 6.02 M0 18.05 C0 14.1, 0 10.15, 0 6.02 M0 6.02 C0 2.01, 2.01 0, 6.02 0 M0 6.02 C0 2.01, 2.01 0, 6.02 0" stroke="#000000" stroke-width="1" fill="none"></path></g><g stroke-linecap="round" transform="translate(10.206691221402025 73.10060833259598) rotate(0 342.96103187466036 12.030744247979442)"><path d="M1.6 1.39 C1.6 1.39, 1.6 1.39, 1.6 1.39 M1.6 1.39 C1.6 1.39, 1.6 1.39, 1.6 1.39 M3.31 5.53 C4.36 4.32, 5.41 3.11, 7.24 1 M3.31 5.53 C4.23 4.46, 5.15 3.4, 7.24 1 M3.05 11.92 C5.35 9.27, 7.65 6.62, 12.23 1.36 M3.05 11.92 C5.46 9.15, 7.88 6.37, 12.23 1.36 M1.47 19.83 C5.91 14.72, 10.35 9.61, 17.87 0.96 M1.47 19.83 C6.64 13.88, 11.81 7.94, 17.87 0.96 M3.18 23.96 C9.24 16.99, 15.3 10.02, 22.86 1.32 M3.18 23.96 C8.48 17.87, 13.78 11.77, 22.86 1.32 M7.51 25.08 C14.4 17.15, 21.3 9.22, 28.5 0.93 M7.51 25.08 C15.11 16.34, 22.7 7.6, 28.5 0.93 M12.5 25.44 C18.7 18.31, 24.9 11.17, 33.49 1.29 M12.5 25.44 C20.4 16.35, 28.31 7.25, 33.49 1.29 M18.14 25.04 C26.16 15.82, 34.18 6.6, 39.13 0.89 M18.14 25.04 C22.98 19.47, 27.82 13.91, 39.13 0.89 M23.13 25.4 C31.18 16.14, 39.23 6.88, 44.12 1.25 M23.13 25.4 C30.75 16.64, 38.37 7.87, 44.12 1.25 M28.77 25.01 C35.7 17.04, 42.63 9.07, 49.76 0.86 M28.77 25.01 C35.52 17.25, 42.27 9.48, 49.76 0.86 M33.76 25.37 C40.04 18.15, 46.31 10.93, 54.75 1.22 M33.76 25.37 C41.11 16.91, 48.47 8.45, 54.75 1.22 M39.4 24.98 C44.18 19.48, 48.95 13.99, 60.39 0.82 M39.4 24.98 C47.34 15.85, 55.27 6.72, 60.39 0.82 M44.39 25.34 C51.21 17.49, 58.03 9.64, 65.38 1.18 M44.39 25.34 C48.67 20.41, 52.96 15.48, 65.38 1.18 M50.03 24.94 C56.02 18.05, 62.01 11.16, 71.02 0.79 M50.03 24.94 C56.07 18, 62.1 11.05, 71.02 0.79 M55.02 25.3 C61.32 18.05, 67.63 10.8, 76.01 1.15 M55.02 25.3 C62.02 17.25, 69.02 9.19, 76.01 1.15 M60.66 24.91 C66.35 18.37, 72.03 11.82, 81.65 0.76 M60.66 24.91 C66.57 18.11, 72.47 11.32, 81.65 0.76 M65.65 25.27 C70.28 19.94, 74.91 14.62, 86.64 1.12 M65.65 25.27 C71.77 18.22, 77.9 11.18, 86.64 1.12 M71.29 24.87 C77.75 17.45, 84.2 10.02, 92.28 0.72 M71.29 24.87 C78.31 16.8, 85.33 8.72, 92.28 0.72 M76.28 25.23 C81.26 19.5, 86.24 13.77, 97.27 1.08 M76.28 25.23 C84.16 16.17, 92.04 7.1, 97.27 1.08 M81.27 25.59 C87.22 18.74, 93.18 11.89, 102.92 0.69 M81.27 25.59 C89.17 16.5, 97.07 7.41, 102.92 0.69 M86.91 25.2 C92.34 18.95, 97.76 12.71, 107.9 1.05 M86.91 25.2 C91.63 19.76, 96.36 14.33, 107.9 1.05 M91.9 25.56 C96.3 20.49, 100.7 15.42, 112.89 1.41 M91.9 25.56 C96.85 19.86, 101.8 14.16, 112.89 1.41 M97.54 25.16 C104.85 16.75, 112.17 8.33, 118.53 1.01 M97.54 25.16 C102.26 19.73, 106.99 14.29, 118.53 1.01 M102.53 25.52 C108.9 18.19, 115.28 10.85, 123.52 1.37 M102.53 25.52 C109.94 16.99, 117.36 8.46, 123.52 1.37 M108.17 25.13 C115.04 17.22, 121.91 9.32, 129.16 0.98 M108.17 25.13 C114.54 17.8, 120.91 10.47, 129.16 0.98 M113.16 25.49 C119.57 18.11, 125.98 10.73, 134.15 1.34 M113.16 25.49 C118.76 19.04, 124.36 12.6, 134.15 1.34 M118.8 25.09 C126.61 16.11, 134.41 7.13, 139.79 0.94 M118.8 25.09 C125.76 17.08, 132.73 9.07, 139.79 0.94 M123.79 25.45 C130.5 17.73, 137.22 10, 144.78 1.3 M123.79 25.45 C129.46 18.93, 135.14 12.4, 144.78 1.3 M129.43 25.06 C133.94 19.87, 138.46 14.67, 150.42 0.91 M129.43 25.06 C136.27 17.19, 143.11 9.32, 150.42 0.91 M134.42 25.42 C138.78 20.4, 143.14 15.38, 155.41 1.27 M134.42 25.42 C138.64 20.56, 142.86 15.71, 155.41 1.27 M140.06 25.03 C147.32 16.67, 154.59 8.31, 161.05 0.87 M140.06 25.03 C145.2 19.11, 150.34 13.2, 161.05 0.87 M145.05 25.39 C153.17 16.04, 161.29 6.7, 166.04 1.23 M145.05 25.39 C150.09 19.58, 155.14 13.78, 166.04 1.23 M150.69 24.99 C155.1 19.92, 159.51 14.84, 171.68 0.84 M150.69 24.99 C158.91 15.53, 167.14 6.07, 171.68 0.84 M155.68 25.35 C160.51 19.79, 165.34 14.23, 176.67 1.2 M155.68 25.35 C162.24 17.79, 168.81 10.24, 176.67 1.2 M161.32 24.96 C165.71 19.91, 170.09 14.86, 182.31 0.81 M161.32 24.96 C165.8 19.8, 170.28 14.65, 182.31 0.81 M166.31 25.32 C171.93 18.85, 177.55 12.38, 187.3 1.17 M166.31 25.32 C172.34 18.37, 178.38 11.43, 187.3 1.17 M171.95 24.92 C178.26 17.66, 184.57 10.4, 192.94 0.77 M171.95 24.92 C178.25 17.67, 184.56 10.41, 192.94 0.77 M176.94 25.28 C185.04 15.96, 193.14 6.64, 197.93 1.13 M176.94 25.28 C184.84 16.19, 192.74 7.1, 197.93 1.13 M182.58 24.89 C190.96 15.25, 199.34 5.6, 203.57 0.74 M182.58 24.89 C190.7 15.55, 198.82 6.21, 203.57 0.74 M187.57 25.25 C192.32 19.78, 197.07 14.31, 208.56 1.1 M187.57 25.25 C194.62 17.13, 201.68 9.02, 208.56 1.1 M192.55 25.61 C200.67 16.26, 208.8 6.92, 214.2 0.7 M192.55 25.61 C200.15 16.87, 207.74 8.14, 214.2 0.7 M198.2 25.21 C206.34 15.84, 214.49 6.47, 219.19 1.06 M198.2 25.21 C203.78 18.79, 209.37 12.36, 219.19 1.06 M203.18 25.57 C208.7 19.22, 214.22 12.87, 224.83 0.67 M203.18 25.57 C207.82 20.24, 212.45 14.91, 224.83 0.67 M208.83 25.18 C213.56 19.73, 218.3 14.28, 229.82 1.03 M208.83 25.18 C213.24 20.1, 217.66 15.02, 229.82 1.03 M213.81 25.54 C218.47 20.18, 223.12 14.83, 234.81 1.39 M213.81 25.54 C221 17.27, 228.18 9.01, 234.81 1.39 M219.46 25.14 C224.71 19.11, 229.95 13.07, 240.45 0.99 M219.46 25.14 C226.93 16.55, 234.4 7.95, 240.45 0.99 M224.44 25.5 C228.95 20.32, 233.45 15.15, 245.44 1.35 M224.44 25.5 C229.58 19.6, 234.71 13.7, 245.44 1.35 M230.09 25.11 C236.99 17.17, 243.89 9.23, 251.08 0.96 M230.09 25.11 C235.01 19.45, 239.93 13.79, 251.08 0.96 M235.07 25.47 C241.97 17.53, 248.87 9.59, 256.07 1.32 M235.07 25.47 C242.92 16.44, 250.77 7.41, 256.07 1.32 M240.72 25.07 C246.7 18.19, 252.69 11.3, 261.71 0.92 M240.72 25.07 C247.44 17.34, 254.16 9.6, 261.71 0.92 M245.7 25.43 C250.24 20.22, 254.77 15, 266.7 1.28 M245.7 25.43 C252.57 17.53, 259.44 9.63, 266.7 1.28 M251.35 25.04 C257.62 17.82, 263.9 10.6, 272.34 0.89 M251.35 25.04 C256.23 19.43, 261.11 13.81, 272.34 0.89 M256.33 25.4 C262.3 18.53, 268.27 11.67, 277.33 1.25 M256.33 25.4 C261.48 19.48, 266.62 13.56, 277.33 1.25 M261.98 25.01 C268.41 17.6, 274.85 10.2, 282.97 0.86 M261.98 25.01 C268.97 16.96, 275.97 8.91, 282.97 0.86 M266.96 25.37 C273.22 18.17, 279.47 10.98, 287.96 1.22 M266.96 25.37 C271.41 20.25, 275.85 15.14, 287.96 1.22 M272.61 24.97 C281 15.31, 289.4 5.65, 293.6 0.82 M272.61 24.97 C279.51 17.03, 286.42 9.09, 293.6 0.82 M277.59 25.33 C285.51 16.23, 293.42 7.12, 298.59 1.18 M277.59 25.33 C282.95 19.17, 288.3 13.01, 298.59 1.18 M283.24 24.94 C288.02 19.44, 292.8 13.94, 304.23 0.79 M283.24 24.94 C288.89 18.44, 294.54 11.94, 304.23 0.79 M288.22 25.3 C296.59 15.68, 304.95 6.06, 309.22 1.15 M288.22 25.3 C295.51 16.92, 302.79 8.54, 309.22 1.15 M293.87 24.9 C302.15 15.37, 310.44 5.84, 314.86 0.75 M293.87 24.9 C301.17 16.5, 308.47 8.1, 314.86 0.75 M298.85 25.26 C307.14 15.73, 315.43 6.19, 319.85 1.11 M298.85 25.26 C303.11 20.36, 307.37 15.46, 319.85 1.11 M304.5 24.87 C309.99 18.55, 315.49 12.22, 325.49 0.72 M304.5 24.87 C310.84 17.57, 317.18 10.27, 325.49 0.72 M309.48 25.23 C316.95 16.64, 324.42 8.05, 330.48 1.08 M309.48 25.23 C315.41 18.41, 321.33 11.6, 330.48 1.08 M314.47 25.59 C321.97 16.96, 329.47 8.33, 336.12 0.68 M314.47 25.59 C319.09 20.27, 323.71 14.96, 336.12 0.68 M320.11 25.19 C324.86 19.73, 329.61 14.27, 341.11 1.04 M320.11 25.19 C328.26 15.83, 336.4 6.46, 341.11 1.04 M325.1 25.55 C331.86 17.77, 338.62 10, 346.1 1.4 M325.1 25.55 C331.54 18.15, 337.97 10.75, 346.1 1.4 M330.74 25.16 C337.21 17.72, 343.68 10.27, 351.74 1.01 M330.74 25.16 C336.34 18.72, 341.94 12.28, 351.74 1.01 M335.73 25.52 C340.32 20.24, 344.91 14.96, 356.73 1.37 M335.73 25.52 C343.08 17.07, 350.43 8.61, 356.73 1.37 M341.37 25.12 C346.82 18.86, 352.27 12.59, 362.37 0.97 M341.37 25.12 C345.77 20.07, 350.16 15.02, 362.37 0.97 M346.36 25.48 C351.02 20.13, 355.68 14.77, 367.36 1.33 M346.36 25.48 C351.74 19.29, 357.13 13.1, 367.36 1.33 M352 25.09 C358.18 17.99, 364.36 10.88, 373 0.94 M352 25.09 C357.25 19.06, 362.49 13.03, 373 0.94 M356.99 25.45 C362.75 18.82, 368.51 12.2, 377.99 1.3 M356.99 25.45 C362.91 18.65, 368.82 11.84, 377.99 1.3 M362.63 25.06 C370.67 15.81, 378.71 6.57, 383.63 0.9 M362.63 25.06 C370.32 16.21, 378.01 7.37, 383.63 0.9 M367.62 25.42 C373.38 18.79, 379.15 12.16, 388.62 1.26 M367.62 25.42 C372.37 19.96, 377.11 14.5, 388.62 1.26 M373.26 25.02 C378.55 18.94, 383.84 12.85, 394.26 0.87 M373.26 25.02 C379.15 18.25, 385.04 11.47, 394.26 0.87 M378.25 25.38 C384.07 18.69, 389.89 12, 399.25 1.23 M378.25 25.38 C383.14 19.76, 388.03 14.13, 399.25 1.23 M383.89 24.99 C391.97 15.7, 400.04 6.42, 404.89 0.84 M383.89 24.99 C389.31 18.76, 394.73 12.53, 404.89 0.84 M388.88 25.35 C395.04 18.27, 401.19 11.19, 409.88 1.2 M388.88 25.35 C397.06 15.94, 405.24 6.53, 409.88 1.2 M394.52 24.95 C399.14 19.65, 403.75 14.34, 415.52 0.8 M394.52 24.95 C400.99 17.51, 407.46 10.07, 415.52 0.8 M399.51 25.31 C405.6 18.31, 411.69 11.3, 420.51 1.16 M399.51 25.31 C406.39 17.4, 413.27 9.49, 420.51 1.16 M405.15 24.92 C412.56 16.4, 419.97 7.88, 426.15 0.77 M405.15 24.92 C413.21 15.65, 421.27 6.38, 426.15 0.77 M410.14 25.28 C418.35 15.83, 426.57 6.38, 431.14 1.13 M410.14 25.28 C414.79 19.93, 419.44 14.58, 431.14 1.13 M415.78 24.88 C422.83 16.78, 429.88 8.67, 436.78 0.73 M415.78 24.88 C423.8 15.66, 431.82 6.44, 436.78 0.73 M420.77 25.24 C426.58 18.57, 432.38 11.89, 441.77 1.09 M420.77 25.24 C428.96 15.82, 437.15 6.4, 441.77 1.09 M425.76 25.6 C431.74 18.73, 437.71 11.85, 447.41 0.7 M425.76 25.6 C433.18 17.06, 440.6 8.53, 447.41 0.7 M431.4 25.21 C439.42 15.99, 447.44 6.76, 452.4 1.06 M431.4 25.21 C437.61 18.07, 443.82 10.92, 452.4 1.06 M436.39 25.57 C441.55 19.63, 446.71 13.7, 458.04 0.66 M436.39 25.57 C441.82 19.32, 447.26 13.07, 458.04 0.66 M442.03 25.17 C448.32 17.94, 454.61 10.7, 463.03 1.02 M442.03 25.17 C449.27 16.85, 456.5 8.53, 463.03 1.02 M447.02 25.53 C452.11 19.68, 457.21 13.82, 468.01 1.38 M447.02 25.53 C451.94 19.87, 456.86 14.21, 468.01 1.38 M452.66 25.14 C460.61 16, 468.55 6.86, 473.66 0.99 M452.66 25.14 C458.68 18.22, 464.7 11.29, 473.66 0.99 M457.65 25.5 C463.23 19.08, 468.81 12.66, 478.64 1.35 M457.65 25.5 C465.31 16.69, 472.96 7.88, 478.64 1.35 M463.29 25.11 C470.07 17.31, 476.85 9.51, 484.29 0.95 M463.29 25.11 C467.82 19.9, 472.34 14.7, 484.29 0.95 M468.28 25.47 C473.33 19.65, 478.38 13.84, 489.27 1.31 M468.28 25.47 C473.69 19.25, 479.09 13.03, 489.27 1.31 M473.92 25.07 C482.2 15.55, 490.47 6.03, 494.92 0.92 M473.92 25.07 C481.66 16.17, 489.39 7.27, 494.92 0.92 M478.91 25.43 C484.29 19.24, 489.67 13.05, 499.9 1.28 M478.91 25.43 C484.62 18.86, 490.34 12.28, 499.9 1.28 M484.55 25.04 C488.95 19.98, 493.35 14.92, 505.55 0.89 M484.55 25.04 C491.41 17.14, 498.27 9.25, 505.55 0.89 M489.54 25.4 C497.06 16.74, 504.59 8.08, 510.53 1.25 M489.54 25.4 C496.08 17.87, 502.63 10.34, 510.53 1.25 M495.18 25 C502.37 16.73, 509.56 8.46, 516.18 0.85 M495.18 25 C499.7 19.8, 504.22 14.6, 516.18 0.85 M500.17 25.36 C507.48 16.95, 514.8 8.53, 521.16 1.21 M500.17 25.36 C504.84 19.98, 509.52 14.6, 521.16 1.21 M505.81 24.97 C512.59 17.17, 519.36 9.38, 526.81 0.82 M505.81 24.97 C512.17 17.66, 518.52 10.34, 526.81 0.82 M510.8 25.33 C518.87 16.05, 526.93 6.77, 531.79 1.18 M510.8 25.33 C519.11 15.77, 527.42 6.21, 531.79 1.18 M516.44 24.93 C521.41 19.22, 526.37 13.51, 537.44 0.78 M516.44 24.93 C520.67 20.07, 524.9 15.2, 537.44 0.78 M521.43 25.29 C529.41 16.11, 537.39 6.93, 542.42 1.14 M521.43 25.29 C529.1 16.47, 536.77 7.64, 542.42 1.14 M527.07 24.9 C533.91 17.03, 540.75 9.16, 548.07 0.75 M527.07 24.9 C532.69 18.43, 538.31 11.97, 548.07 0.75 M532.06 25.26 C536.39 20.27, 540.73 15.29, 553.05 1.11 M532.06 25.26 C536.46 20.2, 540.85 15.14, 553.05 1.11 M537.7 24.86 C545.88 15.46, 554.06 6.05, 558.7 0.71 M537.7 24.86 C541.93 20.01, 546.15 15.15, 558.7 0.71 M542.69 25.22 C548.78 18.22, 554.86 11.22, 563.68 1.07 M542.69 25.22 C550.03 16.78, 557.37 8.34, 563.68 1.07 M547.68 25.58 C555.95 16.07, 564.22 6.55, 569.33 0.68 M547.68 25.58 C553 19.47, 558.31 13.35, 569.33 0.68 M553.32 25.19 C557.8 20.04, 562.27 14.89, 574.31 1.04 M553.32 25.19 C560.7 16.7, 568.08 8.21, 574.31 1.04 M558.31 25.55 C562.82 20.36, 567.33 15.17, 579.3 1.4 M558.31 25.55 C566.46 16.17, 574.62 6.78, 579.3 1.4 M563.95 25.15 C570.58 17.53, 577.21 9.9, 584.94 1 M563.95 25.15 C570.76 17.32, 577.57 9.48, 584.94 1 M568.94 25.51 C576.39 16.94, 583.84 8.37, 589.93 1.36 M568.94 25.51 C576.52 16.8, 584.1 8.08, 589.93 1.36 M574.58 25.12 C580.73 18.04, 586.88 10.97, 595.57 0.97 M574.58 25.12 C581.33 17.36, 588.08 9.59, 595.57 0.97 M579.57 25.48 C584.31 20.03, 589.05 14.57, 600.56 1.33 M579.57 25.48 C584.56 19.73, 589.56 13.99, 600.56 1.33 M585.21 25.09 C593.53 15.51, 601.85 5.94, 606.2 0.94 M585.21 25.09 C592.33 16.89, 599.45 8.7, 606.2 0.94 M590.2 25.45 C594.55 20.44, 598.91 15.43, 611.19 1.3 M590.2 25.45 C595.19 19.7, 600.19 13.95, 611.19 1.3 M595.84 25.05 C600.75 19.4, 605.66 13.75, 616.83 0.9 M595.84 25.05 C602.52 17.36, 609.21 9.68, 616.83 0.9 M600.83 25.41 C605.78 19.72, 610.72 14.03, 621.82 1.26 M600.83 25.41 C607.62 17.6, 614.41 9.79, 621.82 1.26 M606.47 25.02 C614.23 16.09, 622 7.16, 627.46 0.87 M606.47 25.02 C613.67 16.73, 620.88 8.45, 627.46 0.87 M611.46 25.38 C615.72 20.48, 619.98 15.58, 632.45 1.23 M611.46 25.38 C615.67 20.53, 619.88 15.68, 632.45 1.23 M617.1 24.98 C623.91 17.15, 630.72 9.32, 638.09 0.83 M617.1 24.98 C622.17 19.15, 627.24 13.32, 638.09 0.83 M622.09 25.34 C629.6 16.7, 637.11 8.07, 643.08 1.19 M622.09 25.34 C628.79 17.63, 635.5 9.91, 643.08 1.19 M627.73 24.95 C635.59 15.91, 643.44 6.87, 648.72 0.8 M627.73 24.95 C635.82 15.64, 643.91 6.34, 648.72 0.8 M632.72 25.31 C639.12 17.95, 645.51 10.59, 653.71 1.16 M632.72 25.31 C638.46 18.71, 644.2 12.1, 653.71 1.16 M638.36 24.91 C645.76 16.4, 653.16 7.89, 659.35 0.76 M638.36 24.91 C644.45 17.91, 650.54 10.91, 659.35 0.76 M643.35 25.27 C647.65 20.32, 651.96 15.36, 664.34 1.12 M643.35 25.27 C651.75 15.61, 660.14 5.95, 664.34 1.12 M648.99 24.88 C654.2 18.89, 659.41 12.9, 669.98 0.73 M648.99 24.88 C653.5 19.69, 658.02 14.5, 669.98 0.73 M653.98 25.24 C661.87 16.15, 669.77 7.07, 674.97 1.09 M653.98 25.24 C661.96 16.05, 669.95 6.87, 674.97 1.09 M658.96 25.6 C663.44 20.45, 667.91 15.31, 680.61 0.69 M658.96 25.6 C666.83 16.55, 674.69 7.51, 680.61 0.69 M664.61 25.2 C670.53 18.39, 676.46 11.57, 684.95 1.81 M664.61 25.2 C669.48 19.6, 674.34 14, 684.95 1.81 M669.59 25.56 C675.43 18.85, 681.27 12.13, 687.31 5.19 M669.59 25.56 C674.58 19.83, 679.57 14.1, 687.31 5.19 M675.24 25.17 C679.98 19.71, 684.72 14.26, 687.7 10.83 M675.24 25.17 C679.55 20.21, 683.86 15.25, 687.7 10.83 M680.88 24.78 C682.32 23.11, 683.77 21.45, 686.13 18.74 M680.88 24.78 C682.25 23.2, 683.61 21.63, 686.13 18.74" stroke="#ced4da" stroke-width="0.5" fill="none"></path><path d="M6.02 0 M6.02 0 C160.69 0, 315.36 0, 679.91 0 M679.91 0 C683.92 0, 685.92 2.01, 685.92 6.02 M685.92 6.02 C685.92 9.35, 685.92 12.69, 685.92 18.05 M685.92 18.05 C685.92 22.06, 683.92 24.06, 679.91 24.06 M679.91 24.06 C515.1 24.06, 350.29 24.06, 6.02 24.06 M6.02 24.06 C2.01 24.06, 0 22.06, 0 18.05 M0 18.05 C0 15.3, 0 12.55, 0 6.02 M0 6.02 C0 2.01, 2.01 0, 6.02 0" stroke="#495057" stroke-width="1.5" fill="none" stroke-dasharray="1.5 7"></path></g><g stroke-linecap="round" transform="translate(356.84273855026936 168.2979431564171) rotate(0 46.592232743938325 12.030744247979442)"><path d="M6.02 0 M6.02 0 C31.22 0, 56.43 0, 87.17 0 M87.17 0 C91.18 0, 93.18 2.01, 93.18 6.02 M93.18 6.02 C93.18 9.53, 93.18 13.04, 93.18 18.05 M93.18 18.05 C93.18 22.06, 91.18 24.06, 87.17 24.06 M87.17 24.06 C63.72 24.06, 40.28 24.06, 6.02 24.06 M6.02 24.06 C2.01 24.06, 0 22.06, 0 18.05 M0 18.05 C0 13.3, 0 8.55, 0 6.02 M0 6.02 C0 2.01, 2.01 0, 6.02 0" stroke="#495057" stroke-width="1.5" fill="none" stroke-dasharray="1.5 7"></path></g><g stroke-linecap="round" transform="translate(455.48486759784396 168.74157870178817) rotate(0 120.57618856511732 12.030744247979442)"><path d="M6.02 0 M6.02 0 C62.53 0, 119.05 0, 235.14 0 M6.02 0 C95.84 0, 185.66 0, 235.14 0 M235.14 0 C239.15 0, 241.15 2.01, 241.15 6.02 M235.14 0 C239.15 0, 241.15 2.01, 241.15 6.02 M241.15 6.02 C241.15 9.23, 241.15 12.44, 241.15 18.05 M241.15 6.02 C241.15 10.64, 241.15 15.26, 241.15 18.05 M241.15 18.05 C241.15 22.06, 239.15 24.06, 235.14 24.06 M241.15 18.05 C241.15 22.06, 239.15 24.06, 235.14 24.06 M235.14 24.06 C178.59 24.06, 122.05 24.06, 6.02 24.06 M235.14 24.06 C165.86 24.06, 96.58 24.06, 6.02 24.06 M6.02 24.06 C2.01 24.06, 0 22.06, 0 18.05 M6.02 24.06 C2.01 24.06, 0 22.06, 0 18.05 M0 18.05 C0 14.35, 0 10.66, 0 6.02 M0 18.05 C0 13.35, 0 8.65, 0 6.02 M0 6.02 C0 2.01, 2.01 0, 6.02 0 M0 6.02 C0 2.01, 2.01 0, 6.02 0" stroke="#000000" stroke-width="1" fill="none"></path></g><g stroke-linecap="round" transform="translate(10.79937339268929 104.84304814403316) rotate(0 169.8935635894734 12.030744247979442)"><path d="M1.6 1.39 C1.6 1.39, 1.6 1.39, 1.6 1.39 M1.6 1.39 C1.6 1.39, 1.6 1.39, 1.6 1.39 M3.31 5.53 C4.26 4.44, 5.2 3.35, 7.24 1 M3.31 5.53 C4.16 4.54, 5.01 3.56, 7.24 1 M3.05 11.92 C5.07 9.6, 7.09 7.27, 12.23 1.36 M3.05 11.92 C5.5 9.1, 7.95 6.28, 12.23 1.36 M1.47 19.83 C4.81 15.99, 8.16 12.14, 17.87 0.96 M1.47 19.83 C6.51 14.03, 11.55 8.23, 17.87 0.96 M3.18 23.96 C8.29 18.08, 13.41 12.2, 22.86 1.32 M3.18 23.96 C10.46 15.59, 17.74 7.22, 22.86 1.32 M7.51 25.08 C11.77 20.18, 16.03 15.28, 28.5 0.93 M7.51 25.08 C13.73 17.92, 19.95 10.77, 28.5 0.93 M12.5 25.44 C20.51 16.22, 28.53 7, 33.49 1.29 M12.5 25.44 C19.86 16.97, 27.22 8.5, 33.49 1.29 M18.14 25.04 C23.73 18.61, 29.33 12.18, 39.13 0.89 M18.14 25.04 C23.01 19.44, 27.88 13.84, 39.13 0.89 M23.13 25.4 C28.08 19.71, 33.03 14.01, 44.12 1.25 M23.13 25.4 C29.14 18.49, 35.15 11.58, 44.12 1.25 M28.77 25.01 C36.45 16.17, 44.13 7.34, 49.76 0.86 M28.77 25.01 C35.48 17.3, 42.18 9.58, 49.76 0.86 M33.76 25.37 C38.29 20.16, 42.82 14.94, 54.75 1.22 M33.76 25.37 C38.16 20.31, 42.56 15.25, 54.75 1.22 M39.4 24.98 C43.96 19.74, 48.51 14.5, 60.39 0.82 M39.4 24.98 C46.11 17.26, 52.82 9.54, 60.39 0.82 M44.39 25.34 C49.83 19.08, 55.27 12.82, 65.38 1.18 M44.39 25.34 C50.89 17.86, 57.39 10.38, 65.38 1.18 M50.03 24.94 C55.89 18.21, 61.74 11.47, 71.02 0.79 M50.03 24.94 C57.37 16.49, 64.72 8.05, 71.02 0.79 M55.02 25.3 C60.2 19.34, 65.38 13.38, 76.01 1.15 M55.02 25.3 C61.99 17.28, 68.96 9.26, 76.01 1.15 M60.66 24.91 C68.11 16.34, 75.55 7.77, 81.65 0.76 M60.66 24.91 C66.61 18.06, 72.56 11.22, 81.65 0.76 M65.65 25.27 C69.92 20.35, 74.2 15.43, 86.64 1.12 M65.65 25.27 C73.59 16.13, 81.53 7, 86.64 1.12 M71.29 24.87 C79.5 15.42, 87.72 5.98, 92.28 0.72 M71.29 24.87 C78.65 16.41, 86 7.95, 92.28 0.72 M76.28 25.23 C82.55 18.02, 88.81 10.81, 97.27 1.08 M76.28 25.23 C82.71 17.84, 89.14 10.44, 97.27 1.08 M81.27 25.59 C87.3 18.65, 93.34 11.7, 102.92 0.69 M81.27 25.59 C88.56 17.21, 95.85 8.82, 102.92 0.69 M86.91 25.2 C92.03 19.31, 97.15 13.42, 107.9 1.05 M86.91 25.2 C93.84 17.22, 100.77 9.25, 107.9 1.05 M91.9 25.56 C97.18 19.47, 102.47 13.39, 112.89 1.41 M91.9 25.56 C99.97 16.27, 108.05 6.98, 112.89 1.41 M97.54 25.16 C103.74 18.03, 109.95 10.89, 118.53 1.01 M97.54 25.16 C102.17 19.84, 106.8 14.51, 118.53 1.01 M102.53 25.52 C108.58 18.56, 114.64 11.59, 123.52 1.37 M102.53 25.52 C110.77 16.04, 119.02 6.55, 123.52 1.37 M108.17 25.13 C113.49 19, 118.82 12.87, 129.16 0.98 M108.17 25.13 C114.55 17.79, 120.93 10.45, 129.16 0.98 M113.16 25.49 C119.67 17.99, 126.19 10.5, 134.15 1.34 M113.16 25.49 C117.69 20.27, 122.22 15.06, 134.15 1.34 M118.8 25.09 C124.3 18.77, 129.8 12.44, 139.79 0.94 M118.8 25.09 C124.33 18.74, 129.85 12.38, 139.79 0.94 M123.79 25.45 C131.83 16.2, 139.87 6.95, 144.78 1.3 M123.79 25.45 C129.35 19.05, 134.91 12.65, 144.78 1.3 M129.43 25.06 C133.79 20.05, 138.14 15.03, 150.42 0.91 M129.43 25.06 C136.52 16.9, 143.61 8.75, 150.42 0.91 M134.42 25.42 C141.04 17.79, 147.67 10.17, 155.41 1.27 M134.42 25.42 C140.87 18, 147.32 10.57, 155.41 1.27 M140.06 25.03 C146.82 17.25, 153.57 9.48, 161.05 0.87 M140.06 25.03 C146.83 17.23, 153.61 9.44, 161.05 0.87 M145.05 25.39 C150.54 19.07, 156.03 12.75, 166.04 1.23 M145.05 25.39 C150.64 18.95, 156.24 12.51, 166.04 1.23 M150.69 24.99 C158.66 15.82, 166.63 6.65, 171.68 0.84 M150.69 24.99 C158.45 16.06, 166.21 7.13, 171.68 0.84 M155.68 25.35 C162.34 17.69, 169 10.03, 176.67 1.2 M155.68 25.35 C160.34 19.98, 165.01 14.61, 176.67 1.2 M161.32 24.96 C167.61 17.72, 173.9 10.48, 182.31 0.81 M161.32 24.96 C169.44 15.61, 177.57 6.27, 182.31 0.81 M166.31 25.32 C173.09 17.51, 179.88 9.7, 187.3 1.17 M166.31 25.32 C170.73 20.23, 175.16 15.14, 187.3 1.17 M171.95 24.92 C179.17 16.61, 186.4 8.3, 192.94 0.77 M171.95 24.92 C176.95 19.16, 181.96 13.41, 192.94 0.77 M176.94 25.28 C182.48 18.9, 188.03 12.52, 197.93 1.13 M176.94 25.28 C181.64 19.87, 186.34 14.46, 197.93 1.13 M182.58 24.89 C189.28 17.17, 195.99 9.46, 203.57 0.74 M182.58 24.89 C189.81 16.57, 197.04 8.25, 203.57 0.74 M187.57 25.25 C193.18 18.78, 198.8 12.32, 208.56 1.1 M187.57 25.25 C191.99 20.15, 196.42 15.06, 208.56 1.1 M192.55 25.61 C200.68 16.26, 208.8 6.91, 214.2 0.7 M192.55 25.61 C198.66 18.59, 204.76 11.57, 214.2 0.7 M198.2 25.21 C202.51 20.25, 206.83 15.28, 219.19 1.06 M198.2 25.21 C203.99 18.55, 209.78 11.89, 219.19 1.06 M203.18 25.57 C207.63 20.46, 212.08 15.34, 224.83 0.67 M203.18 25.57 C211.49 16.02, 219.79 6.47, 224.83 0.67 M208.83 25.18 C214.99 18.09, 221.15 11, 229.82 1.03 M208.83 25.18 C214.71 18.41, 220.59 11.65, 229.82 1.03 M213.81 25.54 C219.01 19.57, 224.2 13.59, 234.81 1.39 M213.81 25.54 C220.92 17.36, 228.03 9.19, 234.81 1.39 M219.46 25.14 C225.56 18.12, 231.67 11.1, 240.45 0.99 M219.46 25.14 C224.52 19.32, 229.57 13.5, 240.45 0.99 M224.44 25.5 C230.36 18.69, 236.28 11.88, 245.44 1.35 M224.44 25.5 C232.68 16.03, 240.91 6.56, 245.44 1.35 M230.09 25.11 C236.39 17.86, 242.7 10.6, 251.08 0.96 M230.09 25.11 C237.05 17.09, 244.02 9.08, 251.08 0.96 M235.07 25.47 C239.99 19.81, 244.92 14.15, 256.07 1.32 M235.07 25.47 C242.35 17.1, 249.62 8.73, 256.07 1.32 M240.72 25.07 C248.46 16.16, 256.21 7.25, 261.71 0.92 M240.72 25.07 C246.65 18.25, 252.59 11.42, 261.71 0.92 M245.7 25.43 C253.54 16.42, 261.37 7.41, 266.7 1.28 M245.7 25.43 C253.24 16.76, 260.78 8.09, 266.7 1.28 M251.35 25.04 C257.38 18.1, 263.41 11.16, 272.34 0.89 M251.35 25.04 C259.31 15.88, 267.28 6.71, 272.34 0.89 M256.33 25.4 C262.86 17.89, 269.38 10.39, 277.33 1.25 M256.33 25.4 C263.56 17.09, 270.79 8.77, 277.33 1.25 M261.98 25.01 C270.15 15.6, 278.33 6.19, 282.97 0.86 M261.98 25.01 C267.53 18.62, 273.08 12.24, 282.97 0.86 M266.96 25.37 C271.23 20.46, 275.5 15.54, 287.96 1.22 M266.96 25.37 C274.78 16.37, 282.6 7.38, 287.96 1.22 M272.61 24.97 C280.03 16.43, 287.45 7.89, 293.6 0.82 M272.61 24.97 C279.66 16.86, 286.71 8.74, 293.6 0.82 M277.59 25.33 C284.96 16.86, 292.32 8.39, 298.59 1.18 M277.59 25.33 C283.26 18.81, 288.93 12.29, 298.59 1.18 M283.24 24.94 C287.47 20.07, 291.69 15.21, 304.23 0.79 M283.24 24.94 C290.57 16.5, 297.9 8.07, 304.23 0.79 M288.22 25.3 C296.55 15.72, 304.88 6.14, 309.22 1.15 M288.22 25.3 C292.85 19.98, 297.47 14.66, 309.22 1.15 M293.87 24.9 C300.13 17.69, 306.4 10.49, 314.86 0.75 M293.87 24.9 C298.38 19.71, 302.89 14.52, 314.86 0.75 M298.85 25.26 C305.75 17.33, 312.64 9.4, 319.85 1.11 M298.85 25.26 C306.45 16.52, 314.06 7.78, 319.85 1.11 M304.5 24.87 C311.93 16.32, 319.36 7.77, 325.49 0.72 M304.5 24.87 C308.7 20.03, 312.91 15.19, 325.49 0.72 M309.48 25.23 C315.3 18.53, 321.12 11.84, 330.48 1.08 M309.48 25.23 C317.69 15.79, 325.9 6.34, 330.48 1.08 M314.47 25.59 C319.11 20.25, 323.75 14.91, 335.46 1.44 M314.47 25.59 C321.39 17.63, 328.3 9.68, 335.46 1.44 M320.11 25.19 C326.37 17.99, 332.63 10.79, 339.8 2.55 M320.11 25.19 C327.17 17.07, 334.23 8.96, 339.8 2.55 M325.1 25.55 C330.16 19.74, 335.22 13.92, 342.16 5.93 M325.1 25.55 C331.61 18.07, 338.11 10.58, 342.16 5.93 M330.74 25.16 C333.93 21.5, 337.11 17.84, 342.55 11.57 M330.74 25.16 C333.97 21.45, 337.19 17.75, 342.55 11.57" stroke="#ced4da" stroke-width="0.5" fill="none"></path><path d="M6.02 0 M6.02 0 C111.14 0, 216.26 0, 333.77 0 M333.77 0 C337.78 0, 339.79 2.01, 339.79 6.02 M339.79 6.02 C339.79 9.73, 339.79 13.45, 339.79 18.05 M339.79 18.05 C339.79 22.06, 337.78 24.06, 333.77 24.06 M333.77 24.06 C244.08 24.06, 154.38 24.06, 6.02 24.06 M6.02 24.06 C2.01 24.06, 0 22.06, 0 18.05 M0 18.05 C0 13.97, 0 9.89, 0 6.02 M0 6.02 C0 2.01, 2.01 0, 6.02 0" stroke="#495057" stroke-width="1.5" fill="none" stroke-dasharray="1.5 7"></path></g><g stroke-linecap="round" transform="translate(10 10) rotate(0 46.592232743938325 12.030744247979442)"><path d="M6.02 0 M6.02 0 C26.04 0, 46.07 0, 87.17 0 M87.17 0 C91.18 0, 93.18 2.01, 93.18 6.02 M93.18 6.02 C93.18 9.16, 93.18 12.3, 93.18 18.05 M93.18 18.05 C93.18 22.06, 91.18 24.06, 87.17 24.06 M87.17 24.06 C64.92 24.06, 42.67 24.06, 6.02 24.06 M6.02 24.06 C2.01 24.06, 0 22.06, 0 18.05 M0 18.05 C0 14.12, 0 10.19, 0 6.02 M0 6.02 C0 2.01, 2.01 0, 6.02 0" stroke="#495057" stroke-width="1.5" fill="none" stroke-dasharray="1.5 7"></path></g><g stroke-linecap="round" transform="translate(108.6421290475746 10.44363554537108) rotate(0 293.7575752640386 12.030744247979442)"><path d="M6.02 0 M6.02 0 C146.8 0, 287.58 0, 581.5 0 M6.02 0 C167.33 0, 328.64 0, 581.5 0 M581.5 0 C585.51 0, 587.52 2.01, 587.52 6.02 M581.5 0 C585.51 0, 587.52 2.01, 587.52 6.02 M587.52 6.02 C587.52 10.29, 587.52 14.57, 587.52 18.05 M587.52 6.02 C587.52 8.75, 587.52 11.48, 587.52 18.05 M587.52 18.05 C587.52 22.06, 585.51 24.06, 581.5 24.06 M587.52 18.05 C587.52 22.06, 585.51 24.06, 581.5 24.06 M581.5 24.06 C462.16 24.06, 342.83 24.06, 6.02 24.06 M581.5 24.06 C462.77 24.06, 344.03 24.06, 6.02 24.06 M6.02 24.06 C2.01 24.06, 0 22.06, 0 18.05 M6.02 24.06 C2.01 24.06, 0 22.06, 0 18.05 M0 18.05 C0 13.9, 0 9.76, 0 6.02 M0 18.05 C0 13.6, 0 9.15, 0 6.02 M0 6.02 C0 2.01, 2.01 0, 6.02 0 M0 6.02 C0 2.01, 2.01 0, 6.02 0" stroke="#000000" stroke-width="1" fill="none"></path></g></svg>